0, 0, Header, 1, 6, 240
1, 0, Start_track
1, 0, Time_signature, 4, 2, 24, 8
1, 0, Tempo, 250000
1, 0, End_track
2, 0, Start_track
2, 0, Program_c, 0, 0
2, 0, Note_on_c, 0, 55, 60
2, 90, Note_off_c, 0, 55, 60
2, 90, Note_on_c, 0, 57, 60
2, 150, Note_off_c, 0, 57, 60
2, 150, Note_on_c, 0, 55, 60
2, 240, Note_off_c, 0, 55, 60
2, 240, Note_on_c, 0, 50, 60
2, 330, Note_off_c, 0, 50, 60
2, 330, Note_on_c, 0, 52, 60
2, 390, Note_off_c, 0, 52, 60
2, 390, Note_on_c, 0, 54, 60
2, 480, Note_off_c, 0, 54, 60
2, 480, Note_on_c, 0, 55, 60
2, 570, Note_off_c, 0, 55, 60
2, 570, Note_on_c, 0, 54, 60
2, 630, Note_off_c, 0, 54, 60
2, 630, Note_on_c, 0, 55, 60
2, 720, Note_off_c, 0, 55, 60
2, 720, Note_on_c, 0, 57, 60
2, 810, Note_off_c, 0, 57, 60
2, 810, Note_on_c, 0, 55, 60
2, 870, Note_off_c, 0, 55, 60
2, 870, Note_on_c, 0, 57, 60
2, 960, Note_off_c, 0, 57, 60
2, 960, Note_on_c, 0, 59, 60
2, 1050, Note_off_c, 0, 59, 60
2, 1050, Note_on_c, 0, 57, 60
2, 1110, Note_off_c, 0, 57, 60
2, 1110, Note_on_c, 0, 59, 60
2, 1200, Note_off_c, 0, 59, 60
2, 1200, Note_on_c, 0, 60, 60
2, 1290, Note_off_c, 0, 60, 60
2, 1290, Note_on_c, 0, 59, 60
2, 1410, Note_off_c, 0, 59, 60
2, 1410, Note_on_c, 0, 57, 60
2, 1530, Note_off_c, 0, 57, 60
2, 1530, Note_on_c, 0, 55, 60
2, 1650, Note_off_c, 0, 55, 60
2, 1650, Note_on_c, 0, 57, 60
2, 1770, Note_off_c, 0, 57, 60
2, 1770, Note_on_c, 0, 59, 60
2, 1890, Note_off_c, 0, 59, 60
2, 1890, Note_on_c, 0, 57, 60
2, 1980, Note_on_c, 0, 64, 60
2, 2010, Note_off_c, 0, 57, 60
2, 2010, Note_on_c, 0, 60, 60
2, 2100, Note_off_c, 0, 60, 60
2, 2100, Note_on_c, 0, 59, 60
2, 2190, Note_off_c, 0, 64, 60
2, 2190, Note_on_c, 0, 66, 60
2, 2220, Note_on_c, 0, 71, 60
2, 2250, Note_off_c, 0, 66, 60
2, 2250, Note_on_c, 0, 64, 60
2, 2340, Note_off_c, 0, 64, 60
2, 2340, Note_on_c, 0, 63, 60
2, 2460, Note_off_c, 0, 59, 60
2, 2460, Note_off_c, 0, 71, 60
2, 2460, Note_on_c, 0, 52, 60
2, 2490, Note_off_c, 0, 63, 60
2, 2490, Note_on_c, 0, 64, 60
2, 3030, Note_off_c, 0, 52, 60
2, 3030, Note_off_c, 0, 64, 60
2, 3030, Note_on_c, 0, 50, 60
2, 3120, Note_on_c, 0, 72, 60
2, 3240, Note_off_c, 0, 72, 60
2, 3240, Note_on_c, 0, 74, 60
2, 3270, Note_off_c, 0, 74, 60
2, 3270, Note_on_c, 0, 78, 60
2, 3330, Note_off_c, 0, 78, 60
2, 3330, Note_on_c, 0, 76, 60
2, 3390, Note_off_c, 0, 76, 60
2, 3390, Note_on_c, 0, 78, 60
2, 3450, Note_off_c, 0, 78, 60
2, 3450, Note_on_c, 0, 79, 60
2, 3510, Note_off_c, 0, 79, 60
2, 3510, Note_on_c, 0, 78, 60
2, 3570, Note_off_c, 0, 78, 60
2, 3570, Note_on_c, 0, 76, 60
2, 3630, Note_off_c, 0, 76, 60
2, 3630, Note_on_c, 0, 74, 60
2, 3690, Note_off_c, 0, 74, 60
2, 3690, Note_on_c, 0, 72, 60
2, 3750, Note_off_c, 0, 50, 60
2, 3750, Note_off_c, 0, 72, 60
2, 3750, Note_on_c, 0, 43, 60
2, 3810, Note_on_c, 0, 79, 60
2, 3870, Note_off_c, 0, 79, 60
2, 3870, Note_on_c, 0, 78, 60
2, 3990, Note_off_c, 0, 78, 60
2, 3990, Note_on_c, 0, 76, 60
2, 4110, Note_off_c, 0, 76, 60
2, 4110, Note_on_c, 0, 79, 60
2, 4230, Note_off_c, 0, 43, 60
2, 4230, Note_off_c, 0, 79, 60
2, 4230, Note_on_c, 0, 55, 60
2, 4350, Note_off_c, 0, 55, 60
2, 4350, Note_on_c, 0, 59, 60
2, 4470, Note_off_c, 0, 59, 60
2, 4470, Note_on_c, 0, 52, 60
2, 4590, Note_off_c, 0, 52, 60
2, 4590, Note_on_c, 0, 55, 60
2, 4710, Note_off_c, 0, 55, 60
2, 4710, Note_on_c, 0, 54, 60
2, 4830, Note_off_c, 0, 54, 60
2, 4830, Note_on_c, 0, 52, 60
2, 4950, Note_off_c, 0, 52, 60
2, 4950, Note_on_c, 0, 61, 60
2, 5190, Note_on_c, 0, 71, 60
2, 5310, Note_off_c, 0, 71, 60
2, 5310, Note_on_c, 0, 64, 60
2, 5430, Note_off_c, 0, 61, 60
2, 5430, Note_off_c, 0, 64, 60
2, 5430, Note_on_c, 0, 59, 60
2, 5550, Note_on_c, 0, 61, 60
2, 5580, Note_off_c, 0, 59, 60
2, 5670, Note_on_c, 0, 59, 60
2, 5790, Note_off_c, 0, 61, 60
2, 5790, Note_off_c, 0, 59, 60
2, 5790, Note_on_c, 0, 55, 60
2, 5880, Note_on_c, 0, 67, 60
2, 6150, Note_off_c, 0, 67, 60
2, 6150, Note_on_c, 0, 71, 60
2, 6390, Note_off_c, 0, 55, 60
2, 6390, Note_on_c, 0, 57, 60
2, 6510, Note_off_c, 0, 57, 60
2, 6510, Note_on_c, 0, 55, 60
2, 6870, Note_off_c, 0, 55, 60
2, 6870, Note_on_c, 0, 57, 60
2, 6990, Note_off_c, 0, 57, 60
2, 6990, Note_on_c, 0, 59, 60
2, 7230, Note_off_c, 0, 59, 60
2, 7230, Note_on_c, 0, 55, 60
2, 7470, Note_off_c, 0, 55, 60
2, 7470, Note_on_c, 0, 57, 60
2, 7590, Note_off_c, 0, 57, 60
2, 7590, Note_on_c, 0, 59, 60
2, 7710, Note_off_c, 0, 59, 60
2, 7710, Note_on_c, 0, 55, 60
2, 7830, Note_off_c, 0, 55, 60
2, 7830, Note_on_c, 0, 54, 60
2, 7950, Note_off_c, 0, 54, 60
2, 7950, Note_on_c, 0, 55, 60
2, 8070, Note_off_c, 0, 55, 60
2, 8070, Note_on_c, 0, 59, 60
2, 8190, Note_off_c, 0, 59, 60
2, 8190, Note_on_c, 0, 57, 60
2, 8430, Note_off_c, 0, 71, 60
2, 8430, Note_off_c, 0, 57, 60
2, 8430, Note_on_c, 0, 59, 60
2, 8520, Note_off_c, 0, 59, 60
2, 8520, Note_on_c, 0, 57, 60
2, 8550, Note_off_c, 0, 57, 60
2, 8550, Note_on_c, 0, 55, 60
2, 9030, Note_off_c, 0, 55, 60
2, 9030, Note_on_c, 0, 57, 60
2, 9150, Note_off_c, 0, 57, 60
2, 9150, Note_on_c, 0, 59, 60
2, 9390, Note_off_c, 0, 59, 60
2, 9390, Note_on_c, 0, 55, 60
2, 10440, Note_off_c, 0, 55, 60
2, 10440, Note_on_c, 0, 54, 60
2, 10560, Note_off_c, 0, 54, 60
2, 10560, Note_on_c, 0, 55, 60
2, 10800, Note_off_c, 0, 55, 60
2, 10800, Note_on_c, 0, 57, 60
2, 10920, Note_off_c, 0, 57, 60
2, 10920, Note_on_c, 0, 59, 60
2, 11040, Note_on_c, 0, 73, 60
2, 11160, Note_off_c, 0, 73, 60
2, 11160, Note_on_c, 0, 75, 60
2, 11280, Note_off_c, 0, 75, 60
2, 11280, Note_on_c, 0, 71, 60
2, 11760, Note_off_c, 0, 59, 60
2, 11760, Note_on_c, 0, 57, 60
2, 11880, Note_off_c, 0, 57, 60
2, 11880, Note_on_c, 0, 59, 60
2, 13140, Note_off_c, 0, 59, 60
2, 13140, Note_on_c, 0, 61, 60
2, 13230, Note_off_c, 0, 71, 60
2, 13230, Note_off_c, 0, 61, 60
2, 13230, Note_on_c, 0, 59, 60
2, 13350, Note_off_c, 0, 59, 60
2, 13350, Note_on_c, 0, 57, 60
2, 13470, Note_off_c, 0, 57, 60
2, 13470, Note_on_c, 0, 55, 60
2, 13590, Note_off_c, 0, 55, 60
2, 13590, Note_on_c, 0, 57, 60
2, 13710, Note_on_c, 0, 66, 60
2, 13830, Note_off_c, 0, 57, 60
2, 13830, Note_on_c, 0, 59, 60
2, 15630, Note_off_c, 0, 59, 60
2, 15630, Note_on_c, 0, 57, 60
2, 15750, Note_off_c, 0, 66, 60
2, 15750, Note_on_c, 0, 64, 60
2, 15870, Note_off_c, 0, 57, 60
2, 15870, Note_off_c, 0, 64, 60
2, 15870, Note_on_c, 0, 50, 60
2, 15990, Note_on_c, 0, 69, 60
2, 16110, Note_off_c, 0, 50, 60
2, 16110, Note_off_c, 0, 69, 60
2, 16110, Note_on_c, 0, 38, 60
2, 16170, Note_on_c, 0, 64, 60
2, 16230, Note_off_c, 0, 64, 60
2, 16230, Note_on_c, 0, 62, 60
2, 17610, Note_off_c, 0, 38, 60
2, 17610, Note_on_c, 0, 43, 60
2, 17730, Note_off_c, 0, 62, 60
2, 17730, Note_on_c, 0, 67, 60
2, 17850, Note_off_c, 0, 43, 60
2, 17850, Note_off_c, 0, 67, 60
2, 17850, Note_on_c, 0, 55, 60
2, 17970, Note_on_c, 0, 67, 60
2, 18090, Note_off_c, 0, 67, 60
2, 18090, Note_on_c, 0, 71, 60
2, 18330, Note_off_c, 0, 55, 60
2, 18330, Note_on_c, 0, 57, 60
2, 18450, Note_off_c, 0, 57, 60
2, 18450, Note_on_c, 0, 55, 60
2, 18690, Note_off_c, 0, 55, 60
2, 18690, Note_on_c, 0, 57, 60
2, 18810, Note_off_c, 0, 57, 60
2, 18810, Note_on_c, 0, 55, 60
2, 19530, Note_off_c, 0, 55, 60
2, 19530, Note_on_c, 0, 57, 60
2, 19650, Note_off_c, 0, 57, 60
2, 19650, Note_on_c, 0, 59, 60
2, 19770, Note_off_c, 0, 71, 60
2, 19770, Note_off_c, 0, 59, 60
2, 19770, Note_on_c, 0, 55, 60
2, 19890, Note_off_c, 0, 55, 60
2, 19890, Note_on_c, 0, 57, 60
2, 20010, Note_off_c, 0, 57, 60
2, 20010, Note_on_c, 0, 59, 60
2, 20250, Note_off_c, 0, 59, 60
2, 20250, Note_on_c, 0, 60, 60
2, 20490, Note_off_c, 0, 60, 60
2, 20490, Note_on_c, 0, 62, 60
2, 20610, Note_off_c, 0, 62, 60
2, 20610, Note_on_c, 0, 60, 60
2, 20730, Note_off_c, 0, 60, 60
2, 20730, Note_on_c, 0, 59, 60
2, 20850, Note_off_c, 0, 59, 60
2, 20850, Note_on_c, 0, 60, 60
2, 20970, Note_on_c, 0, 69, 60
2, 21090, Note_off_c, 0, 60, 60
2, 21090, Note_off_c, 0, 69, 60
2, 21090, Note_on_c, 0, 62, 60
2, 21210, Note_on_c, 0, 69, 60
2, 21330, Note_off_c, 0, 69, 60
2, 21330, Note_on_c, 0, 67, 60
2, 21450, Note_off_c, 0, 62, 60
2, 21450, Note_off_c, 0, 67, 60
2, 21450, Note_on_c, 0, 66, 60
2, 21570, Note_off_c, 0, 66, 60
2, 21570, Note_on_c, 0, 64, 60
2, 21690, Note_off_c, 0, 64, 60
2, 21690, Note_on_c, 0, 62, 60
2, 21810, Note_off_c, 0, 62, 60
2, 21810, Note_on_c, 0, 67, 60
2, 21930, Note_off_c, 0, 67, 60
2, 21930, Note_on_c, 0, 57, 60
2, 22050, Note_on_c, 0, 86, 60
2, 22170, Note_off_c, 0, 86, 60
2, 22170, Note_on_c, 0, 84, 60
2, 23040, Note_off_c, 0, 84, 60
2, 23040, Note_on_c, 0, 81, 60
2, 23160, Note_off_c, 0, 57, 60
2, 23160, Note_off_c, 0, 81, 60
2, 23160, Note_on_c, 0, 59, 60
2, 23280, Note_off_c, 0, 59, 60
2, 23280, Note_on_c, 0, 60, 60
2, 23400, Note_on_c, 0, 76, 60
2, 23640, Note_off_c, 0, 60, 60
2, 23640, Note_off_c, 0, 76, 60
2, 23640, Note_on_c, 0, 62, 60
2, 23700, Note_on_c, 0, 71, 60
2, 23760, Note_off_c, 0, 62, 60
2, 23760, Note_off_c, 0, 71, 60
2, 23760, Note_on_c, 0, 60, 60
2, 23880, Note_off_c, 0, 60, 60
2, 23880, Note_on_c, 0, 62, 60
2, 24000, Note_off_c, 0, 62, 60
2, 24000, Note_on_c, 0, 67, 60
2, 24120, Note_off_c, 0, 67, 60
2, 24120, Note_on_c, 0, 64, 60
2, 24240, Note_off_c, 0, 64, 60
2, 24240, Note_on_c, 0, 67, 60
2, 24360, Note_off_c, 0, 67, 60
2, 24360, Note_on_c, 0, 69, 60
2, 24480, Note_off_c, 0, 69, 60
2, 24480, Note_on_c, 0, 71, 60
2, 24600, Note_off_c, 0, 71, 60
2, 24600, Note_on_c, 0, 72, 60
2, 24720, Note_off_c, 0, 72, 60
2, 24720, Note_on_c, 0, 74, 60
2, 24840, Note_off_c, 0, 74, 60
2, 24840, Note_on_c, 0, 55, 60
2, 24960, Note_off_c, 0, 55, 60
2, 24960, Note_on_c, 0, 54, 60
2, 25080, Note_on_c, 0, 79, 60
2, 25200, Note_off_c, 0, 54, 60
2, 25200, Note_off_c, 0, 79, 60
2, 25200, Note_on_c, 0, 51, 60
2, 25260, Note_on_c, 0, 79, 60
2, 25320, Note_off_c, 0, 51, 60
2, 25320, Note_on_c, 0, 54, 60
2, 25440, Note_off_c, 0, 79, 60
2, 25440, Note_on_c, 0, 78, 60
2, 25500, Note_off_c, 0, 78, 60
2, 25500, Note_on_c, 0, 79, 60
2, 25560, Note_off_c, 0, 54, 60
2, 25560, Note_off_c, 0, 79, 60
2, 25560, Note_on_c, 0, 55, 60
2, 25620, Note_on_c, 0, 79, 60
2, 25740, Note_off_c, 0, 55, 60
2, 25740, Note_off_c, 0, 79, 60
2, 25740, Note_on_c, 0, 57, 60
2, 25860, Note_on_c, 0, 76, 60
2, 25980, Note_off_c, 0, 57, 60
2, 25980, Note_on_c, 0, 55, 60
2, 26100, Note_off_c, 0, 55, 60
2, 26100, Note_on_c, 0, 54, 60
2, 26220, Note_off_c, 0, 76, 60
2, 26220, Note_on_c, 0, 75, 60
2, 26340, Note_off_c, 0, 54, 60
2, 26340, Note_off_c, 0, 75, 60
2, 26340, Note_on_c, 0, 55, 60
2, 26460, Note_off_c, 0, 55, 60
2, 26460, Note_on_c, 0, 54, 60
2, 26580, Note_off_c, 0, 54, 60
2, 26580, Note_on_c, 0, 57, 60
2, 26700, Note_off_c, 0, 57, 60
2, 26700, Note_on_c, 0, 61, 60
2, 26820, Note_off_c, 0, 61, 60
2, 26820, Note_on_c, 0, 59, 60
2, 26940, Note_off_c, 0, 59, 60
2, 26940, Note_on_c, 0, 57, 60
2, 27060, Note_on_c, 0, 76, 60
2, 27180, Note_off_c, 0, 57, 60
2, 27180, Note_off_c, 0, 76, 60
2, 27180, Note_on_c, 0, 54, 60
2, 27300, Note_off_c, 0, 54, 60
2, 27300, Note_on_c, 0, 55, 60
2, 27420, Note_off_c, 0, 55, 60
2, 27420, Note_on_c, 0, 52, 60
2, 27540, Note_off_c, 0, 52, 60
2, 27540, Note_on_c, 0, 47, 60
2, 27660, Note_off_c, 0, 47, 60
2, 27660, Note_on_c, 0, 49, 60
2, 27810, Note_off_c, 0, 49, 60
2, 27810, Note_on_c, 0, 50, 60
2, 30510, Note_on_c, 0, 79, 60
2, 30630, Note_off_c, 0, 50, 60
2, 30630, Note_on_c, 0, 49, 60
2, 30750, Note_off_c, 0, 79, 60
2, 30750, Note_off_c, 0, 49, 60
2, 30750, Note_on_c, 0, 50, 60
2, 30870, Note_off_c, 0, 50, 60
2, 30870, Note_on_c, 0, 49, 60
2, 30930, Note_on_c, 0, 79, 60
2, 30990, Note_off_c, 0, 49, 60
2, 30990, Note_off_c, 0, 79, 60
2, 30990, Note_on_c, 0, 50, 60
2, 31710, Note_off_c, 0, 50, 60
2, 31710, Note_on_c, 0, 52, 60
2, 31830, Note_off_c, 0, 52, 60
2, 31830, Note_on_c, 0, 54, 60
2, 31950, Note_off_c, 0, 54, 60
2, 31950, Note_on_c, 0, 55, 60
2, 32460, Note_on_c, 0, 67, 60
2, 32580, Note_off_c, 0, 55, 60
2, 32580, Note_on_c, 0, 57, 60
2, 32820, Note_off_c, 0, 67, 60
2, 32820, Note_on_c, 0, 69, 60
2, 32940, Note_off_c, 0, 57, 60
2, 32940, Note_off_c, 0, 69, 60
2, 32940, Note_on_c, 0, 55, 60
2, 33000, Note_on_c, 0, 76, 60
2, 33060, Note_off_c, 0, 76, 60
2, 33060, Note_on_c, 0, 74, 60
2, 33120, Note_off_c, 0, 55, 60
2, 33120, Note_on_c, 0, 57, 60
2, 33180, Note_off_c, 0, 74, 60
2, 33180, Note_on_c, 0, 72, 60
2, 33300, Note_off_c, 0, 57, 60
2, 33300, Note_on_c, 0, 55, 60
2, 33420, Note_off_c, 0, 72, 60
2, 33420, Note_off_c, 0, 55, 60
2, 33420, Note_on_c, 0, 54, 60
2, 33480, Note_on_c, 0, 72, 60
2, 33540, Note_off_c, 0, 72, 60
2, 33540, Note_on_c, 0, 74, 60
2, 33600, Note_off_c, 0, 54, 60
2, 33600, Note_on_c, 0, 55, 60
2, 33660, Note_off_c, 0, 74, 60
2, 33660, Note_off_c, 0, 55, 60
2, 33660, Note_on_c, 0, 57, 60
2, 33780, Note_off_c, 0, 57, 60
2, 33780, Note_on_c, 0, 54, 60
2, 34020, Note_off_c, 0, 54, 60
2, 34020, Note_on_c, 0, 52, 60
2, 34170, Note_off_c, 0, 52, 60
2, 34170, Note_on_c, 0, 45, 60
2, 41130, Note_off_c, 0, 45, 60
2, 41130, Note_on_c, 0, 55, 60
2, 41370, Note_on_c, 0, 79, 60
2, 41400, Note_off_c, 0, 55, 60
2, 41400, Note_on_c, 0, 54, 60
2, 41610, Note_off_c, 0, 79, 60
2, 41610, Note_on_c, 0, 81, 60
2, 41940, Note_off_c, 0, 54, 60
2, 41940, Note_on_c, 0, 52, 60
2, 42000, Note_off_c, 0, 81, 60
2, 42000, Note_on_c, 0, 79, 60
2, 42120, Note_off_c, 0, 52, 60
2, 42120, Note_off_c, 0, 79, 60
2, 42120, Note_on_c, 0, 54, 60
2, 43290, Note_off_c, 0, 54, 60
2, 43290, Note_on_c, 0, 50, 60
2, 44310, Note_off_c, 0, 50, 60
2, 44310, Note_on_c, 0, 43, 60
2, 46020, Note_off_c, 0, 43, 60
2, 46020, Note_on_c, 0, 55, 60
2, 47580, Note_off_c, 0, 55, 60
2, 47580, Note_on_c, 0, 57, 60
2, 47820, Note_off_c, 0, 57, 60
2, 47820, Note_on_c, 0, 55, 60
2, 48420, Note_off_c, 0, 55, 60
2, 48420, Note_on_c, 0, 50, 60
2, 48480, Note_on_c, 0, 78, 60
2, 50070, Note_off_c, 0, 50, 60
2, 50070, Note_on_c, 0, 38, 60
2, 50190, Note_off_c, 0, 78, 60
2, 50190, Note_on_c, 0, 74, 60
2, 50220, Note_on_c, 0, 78, 60
2, 50340, Note_off_c, 0, 78, 60
2, 50340, Note_on_c, 0, 76, 60
2, 63360, Note_off_c, 0, 38, 60
2, 63360, Note_on_c, 0, 42, 60
2, 63570, Note_off_c, 0, 74, 60
2, 63570, Note_on_c, 0, 66, 60
2, 63630, Note_off_c, 0, 76, 60
2, 63630, Note_on_c, 0, 74, 60
2, 63750, Note_off_c, 0, 42, 60
2, 63750, Note_on_c, 0, 45, 60
2, 63870, Note_off_c, 0, 45, 60
2, 63870, Note_on_c, 0, 50, 60
2, 63990, Note_off_c, 0, 66, 60
2, 63990, Note_off_c, 0, 50, 60
2, 63990, Note_on_c, 0, 52, 60
2, 64110, Note_off_c, 0, 74, 60
2, 64110, Note_off_c, 0, 52, 60
2, 64110, Note_on_c, 0, 54, 60
2, 64170, Note_on_c, 0, 74, 60
2, 64230, Note_off_c, 0, 54, 60
2, 64230, Note_off_c, 0, 74, 60
2, 64230, Note_on_c, 0, 52, 60
2, 64350, Note_off_c, 0, 52, 60
2, 64350, Note_on_c, 0, 54, 60
2, 64470, Note_off_c, 0, 54, 60
2, 64470, Note_on_c, 0, 52, 60
2, 64590, Note_on_c, 0, 78, 60
2, 64710, Note_off_c, 0, 52, 60
2, 64710, Note_off_c, 0, 78, 60
2, 64710, Note_on_c, 0, 55, 60
2, 64830, Note_off_c, 0, 55, 60
2, 64830, Note_on_c, 0, 61, 60
2, 64950, Note_on_c, 0, 81, 60
2, 65070, Note_off_c, 0, 61, 60
2, 65070, Note_off_c, 0, 81, 60
2, 65070, Note_on_c, 0, 59, 60
2, 65190, Note_off_c, 0, 59, 60
2, 65190, Note_on_c, 0, 57, 60
2, 65220, Note_on_c, 0, 76, 60
2, 65310, Note_off_c, 0, 57, 60
2, 65310, Note_off_c, 0, 76, 60
2, 65310, Note_on_c, 0, 62, 60
2, 65430, Note_off_c, 0, 62, 60
2, 65430, Note_on_c, 0, 61, 60
2, 65460, Note_on_c, 0, 64, 60
2, 65550, Note_off_c, 0, 61, 60
2, 65550, Note_off_c, 0, 64, 60
2, 65550, Note_on_c, 0, 62, 60
2, 65670, Note_off_c, 0, 62, 60
2, 65670, Note_on_c, 0, 64, 60
2, 65790, Note_off_c, 0, 64, 60
2, 65790, Note_on_c, 0, 62, 60
2, 65910, Note_off_c, 0, 62, 60
2, 65910, Note_on_c, 0, 61, 60
2, 66030, Note_off_c, 0, 61, 60
2, 66030, Note_on_c, 0, 62, 60
2, 66150, Note_off_c, 0, 62, 60
2, 66150, Note_on_c, 0, 64, 60
2, 66270, Note_off_c, 0, 64, 60
2, 66270, Note_on_c, 0, 62, 60
2, 66390, Note_off_c, 0, 62, 60
2, 66390, Note_on_c, 0, 61, 60
2, 66510, Note_off_c, 0, 61, 60
2, 66510, Note_on_c, 0, 59, 60
2, 66630, Note_off_c, 0, 59, 60
2, 66630, Note_on_c, 0, 61, 60
2, 66750, Note_off_c, 0, 61, 60
2, 66750, Note_on_c, 0, 63, 60
2, 66840, Note_off_c, 0, 63, 60
2, 66840, Note_on_c, 0, 61, 60
2, 66960, Note_off_c, 0, 61, 60
2, 66960, Note_on_c, 0, 59, 60
2, 67080, Note_off_c, 0, 59, 60
2, 67080, Note_on_c, 0, 57, 60
2, 67200, Note_off_c, 0, 57, 60
2, 67200, Note_on_c, 0, 55, 60
2, 67320, Note_off_c, 0, 55, 60
2, 67320, Note_on_c, 0, 54, 60
2, 67440, Note_off_c, 0, 54, 60
2, 67440, Note_on_c, 0, 55, 60
2, 67530, Note_on_c, 0, 66, 60
2, 67560, Note_off_c, 0, 55, 60
2, 67560, Note_on_c, 0, 54, 60
2, 67680, Note_off_c, 0, 66, 60
2, 67680, Note_on_c, 0, 59, 60
2, 67800, Note_off_c, 0, 59, 60
2, 67800, Note_on_c, 0, 69, 60
2, 67920, Note_off_c, 0, 69, 60
2, 67920, Note_on_c, 0, 66, 60
2, 67980, Note_off_c, 0, 66, 60
2, 67980, Note_on_c, 0, 64, 60
2, 68040, Note_off_c, 0, 64, 60
2, 68040, Note_on_c, 0, 62, 60
2, 68160, Note_off_c, 0, 54, 60
2, 68160, Note_off_c, 0, 62, 60
2, 68160, Note_on_c, 0, 45, 60
2, 68280, Note_off_c, 0, 45, 60
2, 68280, Note_on_c, 0, 55, 60
2, 68400, Note_on_c, 0, 61, 60
2, 68520, Note_off_c, 0, 55, 60
2, 68520, Note_off_c, 0, 61, 60
2, 68520, Note_on_c, 0, 57, 60
2, 68640, Note_off_c, 0, 57, 60
2, 68640, Note_on_c, 0, 55, 60
2, 68760, Note_off_c, 0, 55, 60
2, 68760, Note_on_c, 0, 54, 60
2, 68880, Note_off_c, 0, 54, 60
2, 68880, Note_on_c, 0, 52, 60
2, 69000, Note_off_c, 0, 52, 60
2, 69000, Note_on_c, 0, 54, 60
2, 69120, Note_off_c, 0, 54, 60
2, 69120, Note_on_c, 0, 52, 60
2, 69240, Note_off_c, 0, 52, 60
2, 69240, Note_on_c, 0, 54, 60
2, 69360, Note_on_c, 0, 79, 60
2, 69480, Note_off_c, 0, 79, 60
2, 69480, Note_on_c, 0, 78, 60
2, 69600, Note_off_c, 0, 78, 60
2, 69600, Note_on_c, 0, 76, 60
2, 69720, Note_off_c, 0, 76, 60
2, 69720, Note_on_c, 0, 74, 60
2, 69840, Note_off_c, 0, 54, 60
2, 69840, Note_off_c, 0, 74, 60
2, 69840, Note_on_c, 0, 57, 60
2, 69900, Note_on_c, 0, 76, 60
2, 69960, Note_off_c, 0, 57, 60
2, 69960, Note_off_c, 0, 76, 60
2, 69960, Note_on_c, 0, 50, 60
2, 70200, Note_off_c, 0, 50, 60
2, 70200, Note_on_c, 0, 66, 60
2, 70440, Note_off_c, 0, 66, 60
2, 70440, Note_on_c, 0, 62, 60
2, 70680, Note_on_c, 0, 71, 60
2, 70800, Note_off_c, 0, 62, 60
2, 70800, Note_on_c, 0, 67, 60
2, 70920, Note_off_c, 0, 67, 60
2, 70920, Note_on_c, 0, 60, 60
2, 71040, Note_off_c, 0, 71, 60
2, 71040, Note_off_c, 0, 60, 60
2, 71040, Note_on_c, 0, 57, 60
2, 71160, Note_off_c, 0, 57, 60
2, 71160, Note_on_c, 0, 60, 60
2, 71280, Note_off_c, 0, 60, 60
2, 71280, Note_on_c, 0, 64, 60
2, 71400, Note_on_c, 0, 72, 60
2, 71520, Note_off_c, 0, 64, 60
2, 71520, Note_off_c, 0, 72, 60
2, 71520, Note_on_c, 0, 67, 60
2, 71640, Note_off_c, 0, 67, 60
2, 71640, Note_on_c, 0, 65, 60
2, 71760, Note_on_c, 0, 72, 60
2, 71880, Note_off_c, 0, 65, 60
2, 71880, Note_off_c, 0, 72, 60
2, 71880, Note_on_c, 0, 55, 60
2, 72000, Note_on_c, 0, 69, 60
2, 72120, Note_off_c, 0, 69, 60
2, 72120, Note_on_c, 0, 70, 60
2, 72180, Note_off_c, 0, 55, 60
2, 72180, Note_on_c, 0, 54, 60
2, 72240, Note_off_c, 0, 54, 60
2, 72240, Note_on_c, 0, 55, 60
2, 72360, Note_off_c, 0, 70, 60
2, 72360, Note_off_c, 0, 55, 60
2, 72360, Note_on_c, 0, 53, 60
2, 72480, Note_on_c, 0, 62, 60
2, 72600, Note_off_c, 0, 53, 60
2, 72600, Note_on_c, 0, 52, 60
2, 72720, Note_off_c, 0, 62, 60
2, 72720, Note_off_c, 0, 52, 60
2, 72720, Note_on_c, 0, 51, 60
2, 72840, Note_off_c, 0, 51, 60
2, 72840, Note_on_c, 0, 50, 60
2, 72960, Note_off_c, 0, 50, 60
2, 72960, Note_on_c, 0, 48, 60
2, 73080, Note_off_c, 0, 48, 60
2, 73080, Note_on_c, 0, 46, 60
2, 73200, Note_off_c, 0, 46, 60
2, 73200, Note_on_c, 0, 45, 60
2, 73320, Note_on_c, 0, 71, 60
2, 73440, Note_off_c, 0, 45, 60
2, 73440, Note_off_c, 0, 71, 60
2, 73440, Note_on_c, 0, 47, 60
2, 73560, Note_off_c, 0, 47, 60
2, 73560, Note_on_c, 0, 48, 60
2, 73680, Note_on_c, 0, 72, 60
2, 73800, Note_off_c, 0, 48, 60
2, 73800, Note_off_c, 0, 72, 60
2, 73800, Note_on_c, 0, 50, 60
2, 73920, Note_off_c, 0, 50, 60
2, 73920, Note_on_c, 0, 52, 60
2, 74280, Note_off_c, 0, 52, 60
2, 74280, Note_on_c, 0, 64, 60
2, 74400, Note_off_c, 0, 64, 60
2, 74400, Note_on_c, 0, 62, 60
2, 74520, Note_on_c, 0, 67, 60
2, 74640, Note_off_c, 0, 62, 60
2, 74640, Note_on_c, 0, 60, 60
2, 74760, Note_off_c, 0, 67, 60
2, 74760, Note_off_c, 0, 60, 60
2, 74760, Note_on_c, 0, 59, 60
2, 74880, Note_off_c, 0, 59, 60
2, 74880, Note_on_c, 0, 55, 60
2, 75000, Note_off_c, 0, 55, 60
2, 75000, Note_on_c, 0, 57, 60
2, 75120, Note_off_c, 0, 57, 60
2, 75120, Note_on_c, 0, 59, 60
2, 75240, Note_off_c, 0, 59, 60
2, 75240, Note_on_c, 0, 60, 60
2, 75360, Note_off_c, 0, 60, 60
2, 75360, Note_on_c, 0, 62, 60
2, 75480, Note_off_c, 0, 62, 60
2, 75480, Note_on_c, 0, 60, 60
2, 75600, Note_off_c, 0, 60, 60
2, 75600, Note_on_c, 0, 62, 60
2, 75720, Note_off_c, 0, 62, 60
2, 75720, Note_on_c, 0, 60, 60
2, 75840, Note_off_c, 0, 60, 60
2, 75840, Note_on_c, 0, 59, 60
2, 75960, Note_off_c, 0, 59, 60
2, 75960, Note_on_c, 0, 57, 60
2, 76080, Note_off_c, 0, 57, 60
2, 76080, Note_on_c, 0, 55, 60
2, 76200, Note_off_c, 0, 55, 60
2, 76200, Note_on_c, 0, 54, 60
2, 76320, Note_off_c, 0, 54, 60
2, 76320, Note_on_c, 0, 59, 60
2, 76440, Note_off_c, 0, 59, 60
2, 76440, Note_on_c, 0, 61, 60
2, 76560, Note_on_c, 0, 71, 60
2, 76680, Note_off_c, 0, 71, 60
2, 76680, Note_on_c, 0, 69, 60
2, 76800, Note_off_c, 0, 61, 60
2, 76800, Note_off_c, 0, 69, 60
2, 76800, Note_on_c, 0, 59, 60
2, 76920, Note_off_c, 0, 59, 60
2, 76920, Note_on_c, 0, 49, 60
2, 77040, Note_off_c, 0, 49, 60
2, 77040, Note_on_c, 0, 50, 60
2, 77160, Note_off_c, 0, 50, 60
2, 77160, Note_on_c, 0, 49, 60
2, 77280, Note_off_c, 0, 49, 60
2, 77280, Note_on_c, 0, 52, 60
2, 77400, Note_off_c, 0, 52, 60
2, 77400, Note_on_c, 0, 54, 60
2, 77520, Note_on_c, 0, 76, 60
2, 77640, Note_off_c, 0, 76, 60
2, 77640, Note_on_c, 0, 81, 60
2, 77880, Note_off_c, 0, 54, 60
2, 77880, Note_on_c, 0, 43, 60
2, 77910, Note_off_c, 0, 81, 60
2, 77910, Note_on_c, 0, 79, 60
2, 78000, Note_off_c, 0, 43, 60
2, 78000, Note_off_c, 0, 79, 60
2, 78000, Note_on_c, 0, 42, 60
2, 78120, Note_off_c, 0, 42, 60
2, 78120, Note_on_c, 0, 40, 60
2, 78240, Note_off_c, 0, 40, 60
2, 78240, Note_on_c, 0, 42, 60
2, 78360, Note_off_c, 0, 42, 60
2, 78360, Note_on_c, 0, 43, 60
2, 78480, Note_off_c, 0, 43, 60
2, 78480, Note_on_c, 0, 42, 60
2, 78600, Note_on_c, 0, 71, 60
2, 78720, Note_off_c, 0, 71, 60
2, 78720, Note_on_c, 0, 72, 60
2, 78960, Note_off_c, 0, 42, 60
2, 78960, Note_on_c, 0, 40, 60
2, 79080, Note_off_c, 0, 40, 60
2, 79080, Note_on_c, 0, 42, 60
2, 79200, Note_off_c, 0, 72, 60
2, 79200, Note_off_c, 0, 42, 60
2, 79200, Note_on_c, 0, 45, 60
2, 79320, Note_off_c, 0, 45, 60
2, 79320, Note_on_c, 0, 43, 60
2, 79440, Note_on_c, 0, 76, 60
2, 79560, Note_off_c, 0, 43, 60
2, 79560, Note_off_c, 0, 76, 60
2, 79560, Note_on_c, 0, 45, 60
2, 79680, Note_off_c, 0, 45, 60
2, 79680, Note_on_c, 0, 47, 60
2, 79800, Note_off_c, 0, 47, 60
2, 79800, Note_on_c, 0, 48, 60
2, 79920, Note_on_c, 0, 67, 60
2, 80040, Note_off_c, 0, 48, 60
2, 80040, Note_off_c, 0, 67, 60
2, 80040, Note_on_c, 0, 47, 60
2, 80160, Note_on_c, 0, 64, 60
2, 80280, Note_off_c, 0, 47, 60
2, 80280, Note_on_c, 0, 54, 60
2, 80520, Note_off_c, 0, 64, 60
2, 80520, Note_off_c, 0, 54, 60
2, 80520, Note_on_c, 0, 52, 60
2, 80640, Note_on_c, 0, 57, 60
2, 80760, Note_off_c, 0, 57, 60
2, 80760, Note_on_c, 0, 55, 60
2, 80880, Note_off_c, 0, 52, 60
2, 80880, Note_off_c, 0, 55, 60
2, 80880, Note_on_c, 0, 48, 60
2, 81000, Note_on_c, 0, 59, 60
2, 81120, Note_off_c, 0, 59, 60
2, 81120, Note_on_c, 0, 60, 60
2, 81240, Note_off_c, 0, 48, 60
2, 81240, Note_off_c, 0, 60, 60
2, 81240, Note_on_c, 0, 52, 60
2, 81480, Note_on_c, 0, 78, 60
2, 81540, Note_off_c, 0, 78, 60
2, 81540, Note_on_c, 0, 79, 60
2, 81600, Note_off_c, 0, 79, 60
2, 81600, Note_on_c, 0, 78, 60
2, 81660, Note_off_c, 0, 78, 60
2, 81660, Note_on_c, 0, 57, 60
2, 81720, Note_on_c, 0, 78, 60
2, 81750, Note_off_c, 0, 57, 60
2, 81750, Note_on_c, 0, 58, 60
2, 81780, Note_off_c, 0, 78, 60
2, 81780, Note_off_c, 0, 58, 60
2, 81780, Note_on_c, 0, 61, 60
2, 81900, Note_off_c, 0, 61, 60
2, 81900, Note_on_c, 0, 59, 60
2, 81960, Note_off_c, 0, 59, 60
2, 81960, Note_on_c, 0, 61, 60
2, 82020, Note_off_c, 0, 61, 60
2, 82020, Note_on_c, 0, 59, 60
2, 82140, Note_off_c, 0, 59, 60
2, 82140, Note_on_c, 0, 62, 60
2, 82260, Note_off_c, 0, 62, 60
2, 82260, Note_on_c, 0, 59, 60
2, 82380, Note_off_c, 0, 59, 60
2, 82380, Note_on_c, 0, 61, 60
2, 82620, Note_off_c, 0, 61, 60
2, 82620, Note_on_c, 0, 59, 60
2, 82740, Note_on_c, 0, 67, 60
2, 85230, Note_off_c, 0, 52, 60
2, 85230, Note_off_c, 0, 59, 60
2, 85230, Note_off_c, 0, 67, 60
2, 85230, End_track
3, 0, Start_track
3, 0, Program_c, 1, 0
3, 0, Note_on_c, 1, 67, 60
3, 480, Note_off_c, 1, 67, 60
3, 480, Note_on_c, 1, 62, 60
3, 960, Note_off_c, 1, 62, 60
3, 1200, Note_on_c, 1, 67, 60
3, 1410, Note_on_c, 1, 72, 60
3, 1530, Note_off_c, 1, 72, 60
3, 1530, Note_on_c, 1, 74, 60
3, 1650, Note_off_c, 1, 74, 60
3, 1650, Note_on_c, 1, 76, 60
3, 1770, Note_off_c, 1, 67, 60
3, 1770, Note_off_c, 1, 76, 60
3, 1770, Note_on_c, 1, 66, 60
3, 1890, Note_on_c, 1, 72, 60
3, 1980, Note_off_c, 1, 66, 60
3, 2010, Note_off_c, 1, 72, 60
3, 2010, Note_on_c, 1, 71, 60
3, 2100, Note_off_c, 1, 71, 60
3, 2100, Note_on_c, 1, 69, 60
3, 2220, Note_off_c, 1, 69, 60
3, 2460, Note_on_c, 1, 67, 60
3, 3030, Note_off_c, 1, 67, 60
3, 3030, Note_on_c, 1, 57, 60
3, 3450, Note_off_c, 1, 57, 60
3, 3750, Note_on_c, 1, 71, 60
3, 3810, Note_off_c, 1, 71, 60
3, 4230, Note_on_c, 1, 76, 60
3, 4470, Note_off_c, 1, 76, 60
3, 4470, Note_on_c, 1, 79, 60
3, 4710, Note_off_c, 1, 79, 60
3, 4710, Note_on_c, 1, 73, 60
3, 4830, Note_off_c, 1, 73, 60
3, 4830, Note_on_c, 1, 76, 60
3, 4950, Note_off_c, 1, 76, 60
3, 4950, Note_on_c, 1, 69, 60
3, 5190, Note_off_c, 1, 69, 60
3, 5430, Note_on_c, 1, 62, 60
3, 5550, Note_off_c, 1, 62, 60
3, 5790, Note_on_c, 1, 64, 60
3, 5880, Note_off_c, 1, 64, 60
3, 8550, Note_on_c, 1, 71, 60
3, 11040, Note_off_c, 1, 71, 60
3, 13230, Note_on_c, 1, 63, 60
3, 13470, Note_off_c, 1, 63, 60
3, 13470, Note_on_c, 1, 64, 60
3, 13590, Note_off_c, 1, 64, 60
3, 13590, Note_on_c, 1, 69, 60
3, 13710, Note_off_c, 1, 69, 60
3, 13830, Note_on_c, 1, 79, 60
3, 15630, Note_off_c, 1, 79, 60
3, 15870, Note_on_c, 1, 66, 60
3, 15990, Note_off_c, 1, 66, 60
3, 16110, Note_on_c, 1, 66, 60
3, 16170, Note_off_c, 1, 66, 60
3, 19770, Note_on_c, 1, 76, 60
3, 20010, Note_off_c, 1, 76, 60
3, 20010, Note_on_c, 1, 74, 60
3, 20250, Note_off_c, 1, 74, 60
3, 20250, Note_on_c, 1, 76, 60
3, 20610, Note_off_c, 1, 76, 60
3, 20850, Note_on_c, 1, 72, 60
3, 20970, Note_off_c, 1, 72, 60
3, 21090, Note_on_c, 1, 71, 60
3, 21210, Note_off_c, 1, 71, 60
3, 21930, Note_on_c, 1, 84, 60
3, 22050, Note_off_c, 1, 84, 60
3, 23160, Note_on_c, 1, 79, 60
3, 23280, Note_off_c, 1, 79, 60
3, 23280, Note_on_c, 1, 78, 60
3, 23400, Note_off_c, 1, 78, 60
3, 23640, Note_on_c, 1, 72, 60
3, 23700, Note_off_c, 1, 72, 60
3, 23760, Note_on_c, 1, 69, 60
3, 23880, Note_off_c, 1, 69, 60
3, 23880, Note_on_c, 1, 71, 60
3, 24120, Note_off_c, 1, 71, 60
3, 24120, Note_on_c, 1, 72, 60
3, 24240, Note_off_c, 1, 72, 60
3, 24240, Note_on_c, 1, 71, 60
3, 24360, Note_off_c, 1, 71, 60
3, 24360, Note_on_c, 1, 72, 60
3, 24480, Note_off_c, 1, 72, 60
3, 24480, Note_on_c, 1, 74, 60
3, 24600, Note_off_c, 1, 74, 60
3, 24600, Note_on_c, 1, 76, 60
3, 24720, Note_off_c, 1, 76, 60
3, 24720, Note_on_c, 1, 78, 60
3, 24840, Note_off_c, 1, 78, 60
3, 24840, Note_on_c, 1, 76, 60
3, 24960, Note_off_c, 1, 76, 60
3, 24960, Note_on_c, 1, 81, 60
3, 25080, Note_off_c, 1, 81, 60
3, 25200, Note_on_c, 1, 78, 60
3, 25260, Note_off_c, 1, 78, 60
3, 25560, Note_on_c, 1, 81, 60
3, 25620, Note_off_c, 1, 81, 60
3, 25740, Note_on_c, 1, 78, 60
3, 25860, Note_off_c, 1, 78, 60
3, 26340, Note_on_c, 1, 76, 60
3, 26580, Note_off_c, 1, 76, 60
3, 26580, Note_on_c, 1, 78, 60
3, 26700, Note_off_c, 1, 78, 60
3, 26700, Note_on_c, 1, 81, 60
3, 26820, Note_off_c, 1, 81, 60
3, 26820, Note_on_c, 1, 79, 60
3, 26940, Note_off_c, 1, 79, 60
3, 26940, Note_on_c, 1, 78, 60
3, 27060, Note_off_c, 1, 78, 60
3, 27180, Note_on_c, 1, 75, 60
3, 27300, Note_off_c, 1, 75, 60
3, 27300, Note_on_c, 1, 76, 60
3, 27420, Note_off_c, 1, 76, 60
3, 27420, Note_on_c, 1, 79, 60
3, 27540, Note_off_c, 1, 79, 60
3, 27540, Note_on_c, 1, 81, 60
3, 27660, Note_on_c, 1, 76, 60
3, 30510, Note_off_c, 1, 81, 60
3, 30750, Note_on_c, 1, 78, 60
3, 30930, Note_off_c, 1, 78, 60
3, 30990, Note_off_c, 1, 76, 60
3, 30990, Note_on_c, 1, 69, 60
3, 31710, Note_on_c, 1, 76, 60
3, 31950, Note_off_c, 1, 69, 60
3, 31950, Note_off_c, 1, 76, 60
3, 31950, Note_on_c, 1, 71, 60
3, 32460, Note_off_c, 1, 71, 60
3, 32580, Note_on_c, 1, 76, 60
3, 32820, Note_off_c, 1, 76, 60
3, 32820, Note_on_c, 1, 77, 60
3, 32940, Note_on_c, 1, 71, 60
3, 33000, Note_off_c, 1, 77, 60
3, 33420, Note_on_c, 1, 74, 60
3, 33480, Note_off_c, 1, 74, 60
3, 33660, Note_on_c, 1, 76, 60
3, 34170, Note_off_c, 1, 71, 60
3, 34170, Note_on_c, 1, 72, 60
3, 41130, Note_off_c, 1, 76, 60
3, 41130, Note_on_c, 1, 78, 60
3, 41370, Note_off_c, 1, 78, 60
3, 42120, Note_on_c, 1, 81, 60
3, 44310, Note_off_c, 1, 72, 60
3, 44310, Note_on_c, 1, 71, 60
3, 46020, Note_off_c, 1, 81, 60
3, 46020, Note_on_c, 1, 79, 60
3, 47580, Note_off_c, 1, 71, 60
3, 47580, Note_on_c, 1, 72, 60
3, 47820, Note_off_c, 1, 72, 60
3, 47820, Note_on_c, 1, 76, 60
3, 48480, Note_off_c, 1, 79, 60
3, 50220, Note_off_c, 1, 76, 60
3, 63990, Note_on_c, 1, 64, 60
3, 64110, Note_off_c, 1, 64, 60
3, 64110, Note_on_c, 1, 62, 60
3, 64230, Note_on_c, 1, 76, 60
3, 64350, Note_off_c, 1, 62, 60
3, 64350, Note_off_c, 1, 76, 60
3, 64350, Note_on_c, 1, 78, 60
3, 64470, Note_off_c, 1, 78, 60
3, 64470, Note_on_c, 1, 79, 60
3, 64590, Note_off_c, 1, 79, 60
3, 64710, Note_on_c, 1, 76, 60
3, 64950, Note_off_c, 1, 76, 60
3, 65070, Note_on_c, 1, 79, 60
3, 65190, Note_off_c, 1, 79, 60
3, 65190, Note_on_c, 1, 78, 60
3, 65220, Note_off_c, 1, 78, 60
3, 65310, Note_on_c, 1, 71, 60
3, 65460, Note_off_c, 1, 71, 60
3, 65550, Note_on_c, 1, 66, 60
3, 65670, Note_off_c, 1, 66, 60
3, 65790, Note_on_c, 1, 66, 60
3, 65910, Note_off_c, 1, 66, 60
3, 65910, Note_on_c, 1, 67, 60
3, 66030, Note_off_c, 1, 67, 60
3, 66030, Note_on_c, 1, 66, 60
3, 66150, Note_off_c, 1, 66, 60
3, 66270, Note_on_c, 1, 66, 60
3, 66630, Note_off_c, 1, 66, 60
3, 66630, Note_on_c, 1, 64, 60
3, 66750, Note_off_c, 1, 64, 60
3, 66750, Note_on_c, 1, 66, 60
3, 66960, Note_off_c, 1, 66, 60
3, 66960, Note_on_c, 1, 67, 60
3, 67080, Note_off_c, 1, 67, 60
3, 67080, Note_on_c, 1, 66, 60
3, 67200, Note_off_c, 1, 66, 60
3, 67200, Note_on_c, 1, 64, 60
3, 67320, Note_off_c, 1, 64, 60
3, 67320, Note_on_c, 1, 63, 60
3, 67440, Note_off_c, 1, 63, 60
3, 67440, Note_on_c, 1, 64, 60
3, 67530, Note_off_c, 1, 64, 60
3, 68160, Note_on_c, 1, 61, 60
3, 68280, Note_off_c, 1, 61, 60
3, 68280, Note_on_c, 1, 59, 60
3, 68400, Note_off_c, 1, 59, 60
3, 68520, Note_on_c, 1, 59, 60
3, 68760, Note_off_c, 1, 59, 60
3, 68760, Note_on_c, 1, 69, 60
3, 68880, Note_off_c, 1, 69, 60
3, 68880, Note_on_c, 1, 71, 60
3, 69000, Note_off_c, 1, 71, 60
3, 69000, Note_on_c, 1, 73, 60
3, 69120, Note_off_c, 1, 73, 60
3, 69120, Note_on_c, 1, 76, 60
3, 69240, Note_off_c, 1, 76, 60
3, 69240, Note_on_c, 1, 81, 60
3, 69360, Note_off_c, 1, 81, 60
3, 69840, Note_on_c, 1, 78, 60
3, 69900, Note_off_c, 1, 78, 60
3, 69960, Note_on_c, 1, 78, 60
3, 70200, Note_off_c, 1, 78, 60
3, 70200, Note_on_c, 1, 69, 60
3, 70680, Note_off_c, 1, 69, 60
3, 71040, Note_on_c, 1, 74, 60
3, 71160, Note_off_c, 1, 74, 60
3, 71160, Note_on_c, 1, 76, 60
3, 71280, Note_off_c, 1, 76, 60
3, 71280, Note_on_c, 1, 74, 60
3, 71400, Note_off_c, 1, 74, 60
3, 71520, Note_on_c, 1, 71, 60
3, 71640, Note_off_c, 1, 71, 60
3, 71640, Note_on_c, 1, 74, 60
3, 71760, Note_off_c, 1, 74, 60
3, 71880, Note_on_c, 1, 70, 60
3, 72000, Note_off_c, 1, 70, 60
3, 72360, Note_on_c, 1, 69, 60
3, 72480, Note_off_c, 1, 69, 60
3, 72480, Note_on_c, 1, 70, 60
3, 72720, Note_on_c, 1, 67, 60
3, 72840, Note_off_c, 1, 67, 60
3, 72960, Note_off_c, 1, 70, 60
3, 72960, Note_on_c, 1, 69, 60
3, 73080, Note_off_c, 1, 69, 60
3, 73080, Note_on_c, 1, 62, 60
3, 73200, Note_on_c, 1, 65, 60
3, 73320, Note_off_c, 1, 65, 60
3, 73440, Note_on_c, 1, 74, 60
3, 73560, Note_off_c, 1, 62, 60
3, 73560, Note_on_c, 1, 67, 60
3, 73680, Note_off_c, 1, 74, 60
3, 73800, Note_on_c, 1, 74, 60
3, 73920, Note_off_c, 1, 74, 60
3, 73920, Note_on_c, 1, 76, 60
3, 74280, Note_off_c, 1, 67, 60
3, 74280, Note_on_c, 1, 69, 60
3, 74400, Note_off_c, 1, 76, 60
3, 74400, Note_off_c, 1, 69, 60
3, 74400, Note_on_c, 1, 71, 60
3, 74520, Note_off_c, 1, 71, 60
3, 74760, Note_on_c, 1, 62, 60
3, 74880, Note_off_c, 1, 62, 60
3, 74880, Note_on_c, 1, 64, 60
3, 75000, Note_off_c, 1, 64, 60
3, 75000, Note_on_c, 1, 66, 60
3, 75240, Note_off_c, 1, 66, 60
3, 75240, Note_on_c, 1, 64, 60
3, 75360, Note_off_c, 1, 64, 60
3, 75360, Note_on_c, 1, 66, 60
3, 75480, Note_off_c, 1, 66, 60
3, 75480, Note_on_c, 1, 64, 60
3, 75720, Note_off_c, 1, 64, 60
3, 75720, Note_on_c, 1, 76, 60
3, 75840, Note_off_c, 1, 76, 60
3, 75840, Note_on_c, 1, 74, 60
3, 75960, Note_off_c, 1, 74, 60
3, 75960, Note_on_c, 1, 72, 60
3, 76080, Note_off_c, 1, 72, 60
3, 76080, Note_on_c, 1, 71, 60
3, 76200, Note_off_c, 1, 71, 60
3, 76200, Note_on_c, 1, 69, 60
3, 76320, Note_off_c, 1, 69, 60
3, 76320, Note_on_c, 1, 68, 60
3, 76440, Note_off_c, 1, 68, 60
3, 76440, Note_on_c, 1, 69, 60
3, 76560, Note_off_c, 1, 69, 60
3, 76800, Note_on_c, 1, 67, 60
3, 76920, Note_off_c, 1, 67, 60
3, 76920, Note_on_c, 1, 69, 60
3, 77040, Note_off_c, 1, 69, 60
3, 77040, Note_on_c, 1, 71, 60
3, 77160, Note_off_c, 1, 71, 60
3, 77160, Note_on_c, 1, 73, 60
3, 77280, Note_off_c, 1, 73, 60
3, 77280, Note_on_c, 1, 71, 60
3, 77400, Note_off_c, 1, 71, 60
3, 77400, Note_on_c, 1, 73, 60
3, 77520, Note_off_c, 1, 73, 60
3, 78000, Note_on_c, 1, 78, 60
3, 78120, Note_off_c, 1, 78, 60
3, 78120, Note_on_c, 1, 76, 60
3, 78480, Note_off_c, 1, 76, 60
3, 78480, Note_on_c, 1, 72, 60
3, 78600, Note_off_c, 1, 72, 60
3, 79200, Note_on_c, 1, 69, 60
3, 79320, Note_off_c, 1, 69, 60
3, 79320, Note_on_c, 1, 71, 60
3, 79440, Note_off_c, 1, 71, 60
3, 79560, Note_on_c, 1, 78, 60
3, 79680, Note_off_c, 1, 78, 60
3, 79680, Note_on_c, 1, 79, 60
3, 79800, Note_off_c, 1, 79, 60
3, 79800, Note_on_c, 1, 76, 60
3, 79920, Note_off_c, 1, 76, 60
3, 80040, Note_on_c, 1, 66, 60
3, 80160, Note_off_c, 1, 66, 60
3, 80520, Note_on_c, 1, 55, 60
3, 80640, Note_off_c, 1, 55, 60
3, 80880, Note_on_c, 1, 57, 60
3, 81000, Note_off_c, 1, 57, 60
3, 81240, Note_on_c, 1, 59, 60
3, 81660, Note_off_c, 1, 59, 60
3, 81660, Note_on_c, 1, 76, 60
3, 81720, Note_off_c, 1, 76, 60
3, 81780, Note_on_c, 1, 79, 60
3, 85230, Note_off_c, 1, 79, 60
3, 85230, End_track
4, 0, Start_track
4, 0, Program_c, 2, 0
4, 0, Note_on_c, 2, 71, 60
4, 960, Note_off_c, 2, 71, 60
4, 1200, Note_on_c, 2, 71, 60
4, 1410, Note_off_c, 2, 71, 60
4, 1770, Note_on_c, 2, 74, 60
4, 1890, Note_off_c, 2, 74, 60
4, 3030, Note_on_c, 2, 66, 60
4, 3120, Note_off_c, 2, 66, 60
4, 30990, Note_on_c, 2, 78, 60
4, 31710, Note_off_c, 2, 78, 60
4, 31950, Note_on_c, 2, 75, 60
4, 32580, Note_off_c, 2, 75, 60
4, 64110, Note_on_c, 2, 69, 60
4, 64170, Note_off_c, 2, 69, 60
4, 73080, Note_on_c, 2, 67, 60
4, 73200, Note_off_c, 2, 67, 60
4, 81240, Note_on_c, 2, 79, 60
4, 81480, Note_off_c, 2, 79, 60
4, 85230, End_track
0, 0, End_of_file